<?xml version="1.0" encoding="utf-8"?>
<!-- Generator: Adobe Illustrator 22.1.0, SVG Export Plug-In . SVG Version: 6.00 Build 0)  -->
<svg version="1.1" id="Layer_1" xmlns="http://www.w3.org/2000/svg" xmlns:xlink="http://www.w3.org/1999/xlink" x="0px" y="0px"
	 viewBox="0 0 402.7 367.8" style="enable-background:new 0 0 402.7 367.8;" xml:space="preserve">
<style type="text/css">
	.st0{fill:#020304;stroke:#000000;stroke-miterlimit:10;}
	.st1{fill:#FFFFFF;stroke:#000000;stroke-width:19;stroke-miterlimit:10;}
	.st2{fill:#FFFFFF;stroke:#000000;stroke-miterlimit:10;}
	.st3{fill:#010202;}
</style>
<path class="st0" d="M316.8,323.2H71.5c-6.6,0-12-5.4-12-12V163.7c0-6.6,5.4-12,12-12h245.3c6.6,0,12,5.4,12,12v147.5
	C328.8,317.8,323.4,323.2,316.8,323.2z"/>
<path class="st0" d="M294.2,161.2h-84.8c-6.6,0-12-5.4-12-12v-25.6c0-6.6,5.4-12,12-12h84.8c6.6,0,12,5.4,12,12v25.6
	C306.2,155.8,300.8,161.2,294.2,161.2z"/>
<path class="st0" d="M108.4,161.2H95.2c-5.2,0-9.5-4.3-9.5-9.5v0c0-5.2,4.3-9.5,9.5-9.5h13.1c5.2,0,9.5,4.3,9.5,9.5v0
	C117.9,156.9,113.6,161.2,108.4,161.2z"/>
<path class="st0" d="M256.9,115.9H246c-3.8,0-6.9-3.1-6.9-6.9v0c0-3.8,3.1-6.9,6.9-6.9h10.9c3.8,0,6.9,3.1,6.9,6.9v0
	C263.9,112.8,260.7,115.9,256.9,115.9z"/>
<path class="st1" d="M293.6,96.2h-84.3c-6.6,0-12-5.4-12-12V44c0-6.6,5.4-12,12-12h84.3c6.6,0,12,5.4,12,12v40.2
	C305.6,90.8,300.2,96.2,293.6,96.2z"/>
<circle class="st2" cx="227.4" cy="237.5" r="56.2"/>
<circle class="st3" cx="227.4" cy="237.5" r="45.1"/>
<path class="st2" d="M170.1,170.7h-24.8c-2.6,0-4.7-2.1-4.7-4.7v0c0-2.6,2.1-4.7,4.7-4.7h24.8c2.6,0,4.7,2.1,4.7,4.7v0
	C174.8,168.5,172.7,170.7,170.1,170.7z"/>
<circle class="st2" cx="78.8" cy="172.9" r="6.9"/>
</svg>
