<?xml version="1.0" encoding="utf-8"?>
<!-- Generator: Adobe Illustrator 22.1.0, SVG Export Plug-In . SVG Version: 6.00 Build 0)  -->
<svg version="1.1" id="Layer_1" xmlns="http://www.w3.org/2000/svg" xmlns:xlink="http://www.w3.org/1999/xlink" x="0px" y="0px"
	 viewBox="0 0 421.8 370.3" style="enable-background:new 0 0 421.8 370.3;" xml:space="preserve">
<style type="text/css">
	.st0{fill:#FFFFFF;stroke:#000000;stroke-width:22;stroke-miterlimit:10;}
	.st1{fill:#010202;}
	.st2{fill:none;stroke:#000000;stroke-width:3;stroke-miterlimit:10;}
	.st3{stroke:#000000;stroke-width:3;stroke-miterlimit:10;}
	.st4{fill:#FFFFFF;}
</style>
<path class="st0" d="M336.6,224.9H82.5c-6.6,0-12-5.4-12-12V55.1c0-6.6,5.4-12,12-12h254.1c6.6,0,12,5.4,12,12v157.8
	C348.6,219.5,343.2,224.9,336.6,224.9z"/>
<path class="st1" d="M277.5,290.6H141.6c-6.6,0-12-5.4-12-12v-2.3c0-6.6,5.4-12,12-12h135.9c6.6,0,12,5.4,12,12v2.3
	C289.5,285.2,284.1,290.6,277.5,290.6z"/>
<path class="st1" d="M209.5,284L209.5,284c-5,0-9.1-4.1-9.1-9.1v-51.1c0-5,4.1-9.1,9.1-9.1h0c5,0,9.1,4.1,9.1,9.1v51.1
	C218.7,279.9,214.5,284,209.5,284z"/>
<path class="st2" d="M274.9,278.2c5.3-2.3,55.6-23.9,65-10.9c7.3,10-11.3,39.3-45.3,72.3"/>
<ellipse transform="matrix(0.6523 -0.758 0.758 0.6523 -155.0267 342.904)" class="st3" cx="296.2" cy="340.4" rx="18.2" ry="8"/>
<circle class="st4" cx="209.5" cy="226.4" r="5.8"/>
<path d="M145.3,124.2h-36.6c-6.6,0-12-5.4-12-12V75.6c0-6.6,5.4-12,12-12h36.6c6.6,0,12,5.4,12,12v36.6
	C157.3,118.8,151.9,124.2,145.3,124.2z"/>
<path d="M223.4,201.5H108.8c-6.6,0-12-5.4-12-12V146c0-6.6,5.4-12,12-12h114.7c6.6,0,12,5.4,12,12v43.5
	C235.4,196.1,230,201.5,223.4,201.5z"/>
<line class="st2" x1="173.4" y1="69.4" x2="317.9" y2="68.7"/>
<line class="st2" x1="173.5" y1="82.7" x2="318" y2="82"/>
<line class="st2" x1="173.5" y1="96" x2="318.1" y2="95.3"/>
<line class="st2" x1="173.6" y1="108.7" x2="318.1" y2="108"/>
</svg>
