<?xml version="1.0" encoding="utf-8"?>
<!-- Generator: Adobe Illustrator 22.1.0, SVG Export Plug-In . SVG Version: 6.00 Build 0)  -->
<svg version="1.1" id="Layer_1" xmlns="http://www.w3.org/2000/svg" xmlns:xlink="http://www.w3.org/1999/xlink" x="0px" y="0px"
	 viewBox="0 0 446.3 350.7" style="enable-background:new 0 0 446.3 350.7;" xml:space="preserve">
<style type="text/css">
	.st0{stroke:#000000;stroke-miterlimit:10;}
	.st1{fill:#FFFFFF;stroke:#000000;stroke-linecap:round;stroke-miterlimit:10;}
	.st2{fill:#FFFFFF;stroke:#000000;stroke-miterlimit:10;}
</style>
<circle class="st0" cx="216.2" cy="87" r="70.7"/>
<path class="st1" d="M202,92.5l-49.1,0c0.9,5.4,2.9,13.1,7.4,21.4c5.5,10.4,12.5,17.2,17.2,21.1C177.4,135,177.4,135,202,92.5z"/>
<path class="st1" d="M280.7,92.5l-49.1,0l24.5,42.5c4.4-3.6,11-9.9,16.4-19.5C277.8,106.4,279.8,98,280.7,92.5z"/>
<path class="st0" d="M389.7,252H132c-6.6,0-12-5.4-12-12V114.4c0-6.6,5.4-12,12-12h257.8c6.6,0,12,5.4,12,12V240
	C401.7,246.6,396.3,252,389.7,252z"/>
<path class="st0" d="M120.4,192.7h-8.1c-6.6,0-12-5.4-12-12v-46.1c0-6.6,5.4-12,12-12h8.1c6.6,0,12,5.4,12,12v46.1
	C132.4,187.3,127,192.7,120.4,192.7z"/>
<path class="st0" d="M101.6,208.9H32.3c-3.8-0.3-6-1.2-6.8-2.8c-2.2-4.9,9.8-16.1,36-33.6c-0.2-9.5-0.5-19-0.7-28.5
	c-25.4-16.9-36.9-28.2-34.6-33.9c0.7-1.8,2.7-3,6.1-3.7h69.3c5.3,0,9.6,4.3,9.6,9.6v83.3C111.2,204.6,106.9,208.9,101.6,208.9z"/>
<circle class="st2" cx="216.2" cy="87.8" r="11.7"/>
<path class="st0" d="M363.1,304.4L363.1,304.4c-2.6,4-8,5.2-12,2.6l-107.1-68.5c-4-2.6-5.2-8-2.6-12v0c2.6-4,8-5.2,12-2.6
	l107.1,68.5C364.5,294.9,365.7,300.3,363.1,304.4z"/>
<path class="st0" d="M143.8,304.6L143.8,304.6c-2.6-4-1.4-9.4,2.6-12l106.9-68.9c4-2.6,9.4-1.4,12,2.6l0,0c2.6,4,1.4,9.4-2.6,12
	l-106.9,68.9C151.8,309.8,146.4,308.6,143.8,304.6z"/>
<path class="st2" d="M373.7,157.7h-23.4c-6.6,0-12-5.4-12-12v-11c0-6.6,5.4-12,12-12h23.4c6.6,0,12,5.4,12,12v11
	C385.7,152.3,380.3,157.7,373.7,157.7z"/>
<circle class="st2" cx="383.8" cy="201.3" r="5.5"/>
<circle class="st2" cx="383.8" cy="219.1" r="5.5"/>
<path class="st1" d="M240.7,27.9c-5.3-1.9-13.5-4.2-23.7-4.3c-11-0.1-19.9,2.3-25.3,4.3c8.2,14.2,16.4,28.3,24.5,42.5L240.7,27.9z"
	/>
<path class="st1" d="M279.6,78.7c-0.9-5.5-2.9-14.3-8.4-23.7c-5.4-9.2-11.8-15.3-16.1-18.7c-8.2,14.2-16.4,28.3-24.5,42.5
	L279.6,78.7z"/>
<path class="st1" d="M201.3,78.6l-24.5-42.5c-4.3,3.6-10.5,9.6-15.8,18.6c-5.6,9.5-7.8,18.3-8.7,23.9
	C168.6,78.6,185,78.6,201.3,78.6z"/>
</svg>
